{
	"patcher" : 	{
		"fileversion" : 1,
		"appversion" : 		{
			"major" : 7,
			"minor" : 3,
			"revision" : 4,
			"architecture" : "x86",
			"modernui" : 1
		}
,
		"rect" : [ 34.0, 79.0, 1212.0, 657.0 ],
		"bglocked" : 0,
		"openinpresentation" : 0,
		"default_fontsize" : 12.0,
		"default_fontface" : 0,
		"default_fontname" : "Arial",
		"gridonopen" : 1,
		"gridsize" : [ 15.0, 15.0 ],
		"gridsnaponopen" : 1,
		"objectsnaponopen" : 1,
		"statusbarvisible" : 2,
		"toolbarvisible" : 1,
		"lefttoolbarpinned" : 0,
		"toptoolbarpinned" : 0,
		"righttoolbarpinned" : 0,
		"bottomtoolbarpinned" : 0,
		"toolbars_unpinned_last_save" : 0,
		"tallnewobj" : 0,
		"boxanimatetime" : 200,
		"enablehscroll" : 1,
		"enablevscroll" : 1,
		"devicewidth" : 0.0,
		"description" : "",
		"digest" : "",
		"tags" : "",
		"style" : "",
		"subpatcher_template" : "",
		"boxes" : [ 			{
				"box" : 				{
					"id" : "obj-114",
					"maxclass" : "newobj",
					"numinlets" : 1,
					"numoutlets" : 2,
					"outlettype" : [ "jit_matrix", "" ],
					"patching_rect" : [ 43.0, 452.0, 43.0, 22.0 ],
					"style" : "",
					"text" : "jit.rota"
				}

			}
, 			{
				"box" : 				{
					"id" : "obj-113",
					"linecount" : 2,
					"maxclass" : "comment",
					"numinlets" : 1,
					"numoutlets" : 0,
					"patching_rect" : [ 69.0, 371.5, 150.0, 33.0 ],
					"style" : "",
					"text" : "average w/ original to retain slight recognizability"
				}

			}
, 			{
				"box" : 				{
					"id" : "obj-111",
					"maxclass" : "jit.pwindow",
					"numinlets" : 1,
					"numoutlets" : 2,
					"outlettype" : [ "", "" ],
					"patching_rect" : [ 217.5, 407.0, 360.0, 240.0 ],
					"presentation_rect" : [ 0.0, 0.0, 360.0, 240.0 ]
				}

			}
, 			{
				"box" : 				{
					"id" : "obj-110",
					"maxclass" : "newobj",
					"numinlets" : 2,
					"numoutlets" : 2,
					"outlettype" : [ "jit_matrix", "" ],
					"patching_rect" : [ 220.0, 377.0, 87.0, 22.0 ],
					"style" : "",
					"text" : "jit.op @op avg"
				}

			}
, 			{
				"box" : 				{
					"id" : "obj-103",
					"maxclass" : "newobj",
					"numinlets" : 1,
					"numoutlets" : 1,
					"outlettype" : [ "" ],
					"patching_rect" : [ 188.5, 282.0, 71.0, 22.0 ],
					"style" : "",
					"text" : "prepend op"
				}

			}
, 			{
				"box" : 				{
					"id" : "obj-102",
					"maxclass" : "message",
					"numinlets" : 2,
					"numoutlets" : 1,
					"outlettype" : [ "" ],
					"patching_rect" : [ 188.5, 313.0, 257.0, 22.0 ],
					"style" : "",
					"text" : "op !=p abs ^ !/"
				}

			}
, 			{
				"box" : 				{
					"id" : "obj-91",
					"maxclass" : "newobj",
					"numinlets" : 2,
					"numoutlets" : 1,
					"outlettype" : [ "bang" ],
					"patching_rect" : [ 203.0, 113.0, 71.0, 22.0 ],
					"style" : "",
					"text" : "metro 1000"
				}

			}
, 			{
				"box" : 				{
					"id" : "obj-88",
					"maxclass" : "newobj",
					"numinlets" : 2,
					"numoutlets" : 1,
					"outlettype" : [ "int" ],
					"patching_rect" : [ 377.5, 161.0, 68.0, 22.0 ],
					"style" : "",
					"text" : "random 40"
				}

			}
, 			{
				"box" : 				{
					"id" : "obj-87",
					"maxclass" : "newobj",
					"numinlets" : 2,
					"numoutlets" : 1,
					"outlettype" : [ "int" ],
					"patching_rect" : [ 313.5, 161.0, 68.0, 22.0 ],
					"style" : "",
					"text" : "random 40"
				}

			}
, 			{
				"box" : 				{
					"id" : "obj-86",
					"maxclass" : "newobj",
					"numinlets" : 2,
					"numoutlets" : 1,
					"outlettype" : [ "int" ],
					"patching_rect" : [ 250.5, 161.0, 68.0, 22.0 ],
					"style" : "",
					"text" : "random 40"
				}

			}
, 			{
				"box" : 				{
					"id" : "obj-85",
					"items" : [ "pass", ",", "*", ",", "/", ",", "+", ",", "\\-", ",", "+m", ",", "-m", ",", "%", ",", "min", ",", "max", ",", "abs", ",", "avg", ",", "absdiff", ",", "wrap", ",", "fold", ",", "!pass", ",", "!/", ",", "!-", ",", "!%", ",", "&", ",", "|", ",", "^", ",", "~", ",", ">>", ",", "<<", ",", "&&", ",", "||", ",", "!", ",", ">", ",", "<", ",", ">=", ",", "<=", ",", "==", ",", "!=", ",", ">p", ",", "<p", ",", ">=p", ",", "<=p", ",", "==p", ",", "!=p", ",", "sin", ",", "cos", ",", "tan", ",", "asin", ",", "acos", ",", "atan", ",", "atan2", ",", "sinh", ",", "cosh", ",", "tanh", ",", "asinh", ",", "acosh", ",", "atanh", ",", "exp", ",", "exp2", ",", "ln", ",", "log2", ",", "log10", ",", "hypot", ",", "pow", ",", "sqrt", ",", "ceil", ",", "floor", ",", "round", ",", "trunc", ",", "ignore" ],
					"maxclass" : "umenu",
					"numinlets" : 1,
					"numoutlets" : 3,
					"outlettype" : [ "int", "", "" ],
					"parameter_enable" : 0,
					"patching_rect" : [ 415.0, 190.0, 60.0, 22.0 ],
					"style" : ""
				}

			}
, 			{
				"box" : 				{
					"id" : "obj-84",
					"items" : [ "pass", ",", "*", ",", "/", ",", "+", ",", "\\-", ",", "+m", ",", "-m", ",", "%", ",", "min", ",", "max", ",", "abs", ",", "avg", ",", "absdiff", ",", "wrap", ",", "fold", ",", "!pass", ",", "!/", ",", "!-", ",", "!%", ",", "&", ",", "|", ",", "^", ",", "~", ",", ">>", ",", "<<", ",", "&&", ",", "||", ",", "!", ",", ">", ",", "<", ",", ">=", ",", "<=", ",", "==", ",", "!=", ",", ">p", ",", "<p", ",", ">=p", ",", "<=p", ",", "==p", ",", "!=p", ",", "sin", ",", "cos", ",", "tan", ",", "asin", ",", "acos", ",", "atan", ",", "atan2", ",", "sinh", ",", "cosh", ",", "tanh", ",", "asinh", ",", "acosh", ",", "atanh", ",", "exp", ",", "exp2", ",", "ln", ",", "log2", ",", "log10", ",", "hypot", ",", "pow", ",", "sqrt", ",", "ceil", ",", "floor", ",", "round", ",", "trunc", ",", "ignore" ],
					"maxclass" : "umenu",
					"numinlets" : 1,
					"numoutlets" : 3,
					"outlettype" : [ "int", "", "" ],
					"parameter_enable" : 0,
					"patching_rect" : [ 339.0, 190.0, 60.0, 22.0 ],
					"style" : ""
				}

			}
, 			{
				"box" : 				{
					"id" : "obj-83",
					"items" : [ "pass", ",", "*", ",", "/", ",", "+", ",", "\\-", ",", "+m", ",", "-m", ",", "%", ",", "min", ",", "max", ",", "abs", ",", "avg", ",", "absdiff", ",", "wrap", ",", "fold", ",", "!pass", ",", "!/", ",", "!-", ",", "!%", ",", "&", ",", "|", ",", "^", ",", "~", ",", ">>", ",", "<<", ",", "&&", ",", "||", ",", "!", ",", ">", ",", "<", ",", ">=", ",", "<=", ",", "==", ",", "!=", ",", ">p", ",", "<p", ",", ">=p", ",", "<=p", ",", "==p", ",", "!=p", ",", "sin", ",", "cos", ",", "tan", ",", "asin", ",", "acos", ",", "atan", ",", "atan2", ",", "sinh", ",", "cosh", ",", "tanh", ",", "asinh", ",", "acosh", ",", "atanh", ",", "exp", ",", "exp2", ",", "ln", ",", "log2", ",", "log10", ",", "hypot", ",", "pow", ",", "sqrt", ",", "ceil", ",", "floor", ",", "round", ",", "trunc", ",", "ignore" ],
					"maxclass" : "umenu",
					"numinlets" : 1,
					"numoutlets" : 3,
					"outlettype" : [ "int", "", "" ],
					"parameter_enable" : 0,
					"patching_rect" : [ 264.5, 190.0, 60.0, 22.0 ],
					"style" : ""
				}

			}
, 			{
				"box" : 				{
					"id" : "obj-82",
					"items" : [ "pass", ",", "*", ",", "/", ",", "+", ",", "\\-", ",", "+m", ",", "-m", ",", "%", ",", "min", ",", "max", ",", "abs", ",", "avg", ",", "absdiff", ",", "wrap", ",", "fold", ",", "!pass", ",", "!/", ",", "!-", ",", "!%", ",", "&", ",", "|", ",", "^", ",", "~", ",", ">>", ",", "<<", ",", "&&", ",", "||", ",", "!", ",", ">", ",", "<", ",", ">=", ",", "<=", ",", "==", ",", "!=", ",", ">p", ",", "<p", ",", ">=p", ",", "<=p", ",", "==p", ",", "!=p", ",", "sin", ",", "cos", ",", "tan", ",", "asin", ",", "acos", ",", "atan", ",", "atan2", ",", "sinh", ",", "cosh", ",", "tanh", ",", "asinh", ",", "acosh", ",", "atanh", ",", "exp", ",", "exp2", ",", "ln", ",", "log2", ",", "log10", ",", "hypot", ",", "pow", ",", "sqrt", ",", "ceil", ",", "floor", ",", "round", ",", "trunc", ",", "ignore" ],
					"maxclass" : "umenu",
					"numinlets" : 1,
					"numoutlets" : 3,
					"outlettype" : [ "int", "", "" ],
					"parameter_enable" : 0,
					"patching_rect" : [ 188.5, 190.0, 60.0, 22.0 ],
					"style" : ""
				}

			}
, 			{
				"box" : 				{
					"fontname" : "Arial",
					"fontsize" : 13.0,
					"id" : "obj-81",
					"maxclass" : "newobj",
					"numinlets" : 4,
					"numoutlets" : 1,
					"outlettype" : [ "" ],
					"patching_rect" : [ 188.5, 243.5, 66.0, 23.0 ],
					"style" : "",
					"text" : "pak * * * *"
				}

			}
, 			{
				"box" : 				{
					"id" : "obj-76",
					"maxclass" : "newobj",
					"numinlets" : 2,
					"numoutlets" : 1,
					"outlettype" : [ "int" ],
					"patching_rect" : [ 188.5, 161.0, 68.0, 22.0 ],
					"style" : "",
					"text" : "random 40"
				}

			}
, 			{
				"box" : 				{
					"id" : "obj-73",
					"maxclass" : "newobj",
					"numinlets" : 2,
					"numoutlets" : 1,
					"outlettype" : [ "int" ],
					"patching_rect" : [ 939.0, 91.0, 29.5, 22.0 ],
					"presentation_rect" : [ 737.5, 91.0, 0.0, 0.0 ],
					"style" : "",
					"text" : "* -1"
				}

			}
, 			{
				"box" : 				{
					"id" : "obj-72",
					"maxclass" : "newobj",
					"numinlets" : 2,
					"numoutlets" : 1,
					"outlettype" : [ "int" ],
					"patching_rect" : [ 861.5, 91.0, 29.5, 22.0 ],
					"presentation_rect" : [ 659.5, 92.0, 0.0, 0.0 ],
					"style" : "",
					"text" : "* -1"
				}

			}
, 			{
				"box" : 				{
					"id" : "obj-71",
					"maxclass" : "newobj",
					"numinlets" : 2,
					"numoutlets" : 1,
					"outlettype" : [ "int" ],
					"patching_rect" : [ 791.5, 91.0, 29.5, 22.0 ],
					"style" : "",
					"text" : "* -1"
				}

			}
, 			{
				"box" : 				{
					"id" : "obj-61",
					"maxclass" : "newobj",
					"numinlets" : 3,
					"numoutlets" : 1,
					"outlettype" : [ "int" ],
					"patching_rect" : [ 939.0, 42.0, 41.0, 22.0 ],
					"presentation_rect" : [ 735.5, 92.0, 0.0, 0.0 ],
					"style" : "",
					"text" : "drunk"
				}

			}
, 			{
				"box" : 				{
					"id" : "obj-60",
					"maxclass" : "newobj",
					"numinlets" : 3,
					"numoutlets" : 1,
					"outlettype" : [ "int" ],
					"patching_rect" : [ 861.5, 42.0, 41.0, 22.0 ],
					"presentation_rect" : [ 658.5, 91.0, 0.0, 0.0 ],
					"style" : "",
					"text" : "drunk"
				}

			}
, 			{
				"box" : 				{
					"id" : "obj-59",
					"maxclass" : "newobj",
					"numinlets" : 3,
					"numoutlets" : 1,
					"outlettype" : [ "int" ],
					"patching_rect" : [ 791.5, 42.0, 41.0, 22.0 ],
					"presentation_rect" : [ 588.0, 89.0, 0.0, 0.0 ],
					"style" : "",
					"text" : "drunk"
				}

			}
, 			{
				"box" : 				{
					"id" : "obj-58",
					"maxclass" : "newobj",
					"numinlets" : 3,
					"numoutlets" : 1,
					"outlettype" : [ "int" ],
					"patching_rect" : [ 646.0, 91.0, 41.0, 22.0 ],
					"presentation_rect" : [ 439.5, 91.0, 0.0, 0.0 ],
					"style" : "",
					"text" : "drunk"
				}

			}
, 			{
				"box" : 				{
					"id" : "obj-57",
					"maxclass" : "newobj",
					"numinlets" : 3,
					"numoutlets" : 1,
					"outlettype" : [ "int" ],
					"patching_rect" : [ 568.5, 91.0, 41.0, 22.0 ],
					"presentation_rect" : [ 363.5, 91.0, 0.0, 0.0 ],
					"style" : "",
					"text" : "drunk"
				}

			}
, 			{
				"box" : 				{
					"id" : "obj-56",
					"maxclass" : "newobj",
					"numinlets" : 3,
					"numoutlets" : 1,
					"outlettype" : [ "int" ],
					"patching_rect" : [ 498.5, 91.0, 41.0, 22.0 ],
					"style" : "",
					"text" : "drunk"
				}

			}
, 			{
				"box" : 				{
					"id" : "obj-55",
					"maxclass" : "message",
					"numinlets" : 2,
					"numoutlets" : 1,
					"outlettype" : [ "" ],
					"patching_rect" : [ 764.0, 10.5, 29.5, 22.0 ],
					"style" : "",
					"text" : "5."
				}

			}
, 			{
				"box" : 				{
					"id" : "obj-53",
					"maxclass" : "message",
					"numinlets" : 2,
					"numoutlets" : 1,
					"outlettype" : [ "" ],
					"patching_rect" : [ 725.0, 10.5, 29.5, 22.0 ],
					"style" : "",
					"text" : "25"
				}

			}
, 			{
				"box" : 				{
					"id" : "obj-48",
					"maxclass" : "message",
					"numinlets" : 2,
					"numoutlets" : 1,
					"outlettype" : [ "" ],
					"patching_rect" : [ 675.0, 10.5, 37.0, 22.0 ],
					"style" : "",
					"text" : "set 0"
				}

			}
, 			{
				"box" : 				{
					"id" : "obj-44",
					"maxclass" : "newobj",
					"numinlets" : 2,
					"numoutlets" : 1,
					"outlettype" : [ "bang" ],
					"patching_rect" : [ 594.5, 10.5, 65.0, 22.0 ],
					"style" : "",
					"text" : "metro 250"
				}

			}
, 			{
				"box" : 				{
					"id" : "obj-41",
					"maxclass" : "toggle",
					"numinlets" : 1,
					"numoutlets" : 1,
					"outlettype" : [ "int" ],
					"parameter_enable" : 0,
					"patching_rect" : [ 26.0, 104.0, 24.0, 24.0 ],
					"style" : ""
				}

			}
, 			{
				"box" : 				{
					"id" : "obj-39",
					"maxclass" : "newobj",
					"numinlets" : 2,
					"numoutlets" : 1,
					"outlettype" : [ "bang" ],
					"patching_rect" : [ 116.0, 113.0, 65.0, 22.0 ],
					"style" : "",
					"text" : "metro 500"
				}

			}
, 			{
				"box" : 				{
					"id" : "obj-33",
					"linecount" : 3,
					"maxclass" : "comment",
					"numinlets" : 1,
					"numoutlets" : 0,
					"patching_rect" : [ 97.0, 183.0, 84.0, 47.0 ],
					"style" : "",
					"text" : "send to jitter, update every 0.5 seconds"
				}

			}
, 			{
				"box" : 				{
					"fontface" : 1,
					"fontsize" : 16.0,
					"id" : "obj-26",
					"linecount" : 2,
					"maxclass" : "comment",
					"numinlets" : 1,
					"numoutlets" : 0,
					"patching_rect" : [ 26.0, 16.0, 359.0, 42.0 ],
					"style" : "",
					"text" : "Patch for filtering and distorting memory of candid preliminary photo"
				}

			}
, 			{
				"box" : 				{
					"id" : "obj-29",
					"maxclass" : "jit.pwindow",
					"numinlets" : 1,
					"numoutlets" : 2,
					"outlettype" : [ "", "" ],
					"patching_rect" : [ 594.5, 407.0, 360.0, 240.0 ],
					"presentation_rect" : [ 391.0, 428.0, 360.0, 240.0 ]
				}

			}
, 			{
				"box" : 				{
					"id" : "obj-30",
					"maxclass" : "message",
					"numinlets" : 2,
					"numoutlets" : 1,
					"outlettype" : [ "" ],
					"patching_rect" : [ 498.5, 359.0, 79.0, 22.0 ],
					"style" : "",
					"text" : "size 360 240"
				}

			}
, 			{
				"box" : 				{
					"id" : "obj-27",
					"maxclass" : "message",
					"numinlets" : 2,
					"numoutlets" : 1,
					"outlettype" : [ "" ],
					"patching_rect" : [ 684.0, 213.0, 79.0, 22.0 ],
					"style" : "",
					"text" : "size 150 100"
				}

			}
, 			{
				"box" : 				{
					"id" : "obj-24",
					"maxclass" : "jit.pwindow",
					"numinlets" : 1,
					"numoutlets" : 2,
					"outlettype" : [ "", "" ],
					"patching_rect" : [ 801.25, 250.0, 150.0, 100.0 ],
					"presentation_rect" : [ 0.0, 0.0, 150.0, 100.0 ]
				}

			}
, 			{
				"box" : 				{
					"fontname" : "Arial",
					"fontsize" : 12.0,
					"id" : "obj-4",
					"maxclass" : "message",
					"numinlets" : 2,
					"numoutlets" : 1,
					"outlettype" : [ "" ],
					"patching_rect" : [ 939.0, 174.0, 80.0, 22.0 ],
					"style" : "",
					"text" : "saturation $1"
				}

			}
, 			{
				"box" : 				{
					"fontname" : "Arial",
					"fontsize" : 12.0,
					"id" : "obj-5",
					"maxclass" : "message",
					"numinlets" : 2,
					"numoutlets" : 1,
					"outlettype" : [ "" ],
					"patching_rect" : [ 861.5, 174.0, 70.0, 22.0 ],
					"style" : "",
					"text" : "contrast $1"
				}

			}
, 			{
				"box" : 				{
					"fontname" : "Arial",
					"fontsize" : 12.0,
					"id" : "obj-7",
					"maxclass" : "message",
					"numinlets" : 2,
					"numoutlets" : 1,
					"outlettype" : [ "" ],
					"patching_rect" : [ 775.0, 174.0, 83.0, 22.0 ],
					"style" : "",
					"text" : "brightness $1"
				}

			}
, 			{
				"box" : 				{
					"fontname" : "Arial",
					"fontsize" : 12.0,
					"format" : 6,
					"id" : "obj-8",
					"maxclass" : "flonum",
					"numinlets" : 1,
					"numoutlets" : 2,
					"outlettype" : [ "", "bang" ],
					"parameter_enable" : 0,
					"patching_rect" : [ 939.0, 144.0, 50.0, 22.0 ],
					"style" : ""
				}

			}
, 			{
				"box" : 				{
					"fontname" : "Arial",
					"fontsize" : 12.0,
					"format" : 6,
					"id" : "obj-9",
					"maxclass" : "flonum",
					"numinlets" : 1,
					"numoutlets" : 2,
					"outlettype" : [ "", "bang" ],
					"parameter_enable" : 0,
					"patching_rect" : [ 861.5, 144.0, 50.0, 22.0 ],
					"style" : ""
				}

			}
, 			{
				"box" : 				{
					"fontname" : "Arial",
					"fontsize" : 12.0,
					"format" : 6,
					"id" : "obj-21",
					"maxclass" : "flonum",
					"numinlets" : 1,
					"numoutlets" : 2,
					"outlettype" : [ "", "bang" ],
					"parameter_enable" : 0,
					"patching_rect" : [ 791.5, 144.0, 50.0, 22.0 ],
					"style" : ""
				}

			}
, 			{
				"box" : 				{
					"fontname" : "Arial",
					"fontsize" : 12.0,
					"id" : "obj-23",
					"maxclass" : "newobj",
					"numinlets" : 1,
					"numoutlets" : 2,
					"outlettype" : [ "jit_matrix", "" ],
					"patching_rect" : [ 775.0, 222.0, 59.0, 22.0 ],
					"style" : "",
					"text" : "jit.brcosa"
				}

			}
, 			{
				"box" : 				{
					"id" : "obj-22",
					"linecount" : 5,
					"maxclass" : "comment",
					"numinlets" : 1,
					"numoutlets" : 0,
					"patching_rect" : [ 284.0, 42.0, 204.0, 74.0 ],
					"style" : "",
					"text" : "TODO:\n- use zoom, rotate, pixelate to manipulate further\n- randomize/automate EVERYTHING so changes over time"
				}

			}
, 			{
				"box" : 				{
					"fontname" : "Arial",
					"fontsize" : 12.0,
					"id" : "obj-20",
					"maxclass" : "message",
					"numinlets" : 2,
					"numoutlets" : 1,
					"outlettype" : [ "" ],
					"patching_rect" : [ 646.0, 174.0, 80.0, 22.0 ],
					"style" : "",
					"text" : "saturation $1"
				}

			}
, 			{
				"box" : 				{
					"fontname" : "Arial",
					"fontsize" : 12.0,
					"id" : "obj-19",
					"maxclass" : "message",
					"numinlets" : 2,
					"numoutlets" : 1,
					"outlettype" : [ "" ],
					"patching_rect" : [ 568.5, 174.0, 70.0, 22.0 ],
					"style" : "",
					"text" : "contrast $1"
				}

			}
, 			{
				"box" : 				{
					"fontname" : "Arial",
					"fontsize" : 12.0,
					"id" : "obj-18",
					"maxclass" : "message",
					"numinlets" : 2,
					"numoutlets" : 1,
					"outlettype" : [ "" ],
					"patching_rect" : [ 482.0, 174.0, 83.0, 22.0 ],
					"style" : "",
					"text" : "brightness $1"
				}

			}
, 			{
				"box" : 				{
					"fontname" : "Arial",
					"fontsize" : 12.0,
					"format" : 6,
					"id" : "obj-16",
					"maxclass" : "flonum",
					"numinlets" : 1,
					"numoutlets" : 2,
					"outlettype" : [ "", "bang" ],
					"parameter_enable" : 0,
					"patching_rect" : [ 646.0, 144.0, 50.0, 22.0 ],
					"style" : ""
				}

			}
, 			{
				"box" : 				{
					"fontname" : "Arial",
					"fontsize" : 12.0,
					"format" : 6,
					"id" : "obj-14",
					"maxclass" : "flonum",
					"numinlets" : 1,
					"numoutlets" : 2,
					"outlettype" : [ "", "bang" ],
					"parameter_enable" : 0,
					"patching_rect" : [ 568.5, 144.0, 50.0, 22.0 ],
					"style" : ""
				}

			}
, 			{
				"box" : 				{
					"fontname" : "Arial",
					"fontsize" : 12.0,
					"format" : 6,
					"id" : "obj-12",
					"maxclass" : "flonum",
					"numinlets" : 1,
					"numoutlets" : 2,
					"outlettype" : [ "", "bang" ],
					"parameter_enable" : 0,
					"patching_rect" : [ 498.5, 144.0, 50.0, 22.0 ],
					"style" : ""
				}

			}
, 			{
				"box" : 				{
					"fontname" : "Arial",
					"fontsize" : 12.0,
					"id" : "obj-10",
					"maxclass" : "newobj",
					"numinlets" : 1,
					"numoutlets" : 2,
					"outlettype" : [ "jit_matrix", "" ],
					"patching_rect" : [ 576.0, 213.0, 59.0, 22.0 ],
					"style" : "",
					"text" : "jit.brcosa"
				}

			}
, 			{
				"box" : 				{
					"id" : "obj-17",
					"maxclass" : "newobj",
					"numinlets" : 2,
					"numoutlets" : 2,
					"outlettype" : [ "jit_matrix", "" ],
					"patching_rect" : [ 594.5, 355.5, 124.0, 22.0 ],
					"style" : "",
					"text" : "jit.op @op * @val 0.5"
				}

			}
, 			{
				"box" : 				{
					"id" : "obj-15",
					"linecount" : 2,
					"maxclass" : "comment",
					"numinlets" : 1,
					"numoutlets" : 0,
					"patching_rect" : [ 26.0, 69.0, 165.0, 33.0 ],
					"style" : "",
					"text" : "read in candid photo taken (from other patch)"
				}

			}
, 			{
				"box" : 				{
					"id" : "obj-13",
					"maxclass" : "fpic",
					"numinlets" : 1,
					"numoutlets" : 1,
					"outlettype" : [ "jit_matrix" ],
					"patching_rect" : [ 26.0, 250.0, 123.0, 60.0 ],
					"pic" : "candid.png"
				}

			}
, 			{
				"box" : 				{
					"id" : "obj-11",
					"maxclass" : "jit.pwindow",
					"numinlets" : 1,
					"numoutlets" : 2,
					"outlettype" : [ "", "" ],
					"patching_rect" : [ 576.0, 250.0, 150.0, 100.0 ],
					"presentation_rect" : [ 0.0, 0.0, 150.0, 100.0 ]
				}

			}
, 			{
				"box" : 				{
					"id" : "obj-6",
					"maxclass" : "button",
					"numinlets" : 1,
					"numoutlets" : 1,
					"outlettype" : [ "bang" ],
					"patching_rect" : [ 69.0, 190.0, 24.0, 24.0 ],
					"style" : ""
				}

			}
, 			{
				"box" : 				{
					"id" : "obj-3",
					"maxclass" : "message",
					"numinlets" : 2,
					"numoutlets" : 1,
					"outlettype" : [ "" ],
					"patching_rect" : [ 10.0, 155.0, 97.0, 22.0 ],
					"style" : "",
					"text" : "read candid.png"
				}

			}
 ],
		"lines" : [ 			{
				"patchline" : 				{
					"destination" : [ "obj-11", 0 ],
					"midpoints" : [ 585.5, 237.0, 585.5, 237.0 ],
					"order" : 1,
					"source" : [ "obj-10", 0 ]
				}

			}
, 			{
				"patchline" : 				{
					"destination" : [ "obj-17", 0 ],
					"midpoints" : [ 585.5, 237.0, 561.0, 237.0, 561.0, 351.0, 604.0, 351.0 ],
					"order" : 0,
					"source" : [ "obj-10", 0 ]
				}

			}
, 			{
				"patchline" : 				{
					"destination" : [ "obj-102", 1 ],
					"midpoints" : [ 198.0, 306.0, 174.0, 306.0, 174.0, 345.0, 456.0, 345.0, 456.0, 309.0, 436.0, 309.0 ],
					"order" : 1,
					"source" : [ "obj-103", 0 ]
				}

			}
, 			{
				"patchline" : 				{
					"destination" : [ "obj-17", 0 ],
					"midpoints" : [ 198.0, 306.0, 174.0, 306.0, 174.0, 345.0, 573.0, 345.0, 573.0, 351.0, 604.0, 351.0 ],
					"order" : 0,
					"source" : [ "obj-103", 0 ]
				}

			}
, 			{
				"patchline" : 				{
					"destination" : [ "obj-111", 0 ],
					"midpoints" : [ 229.5, 402.0, 227.0, 402.0 ],
					"source" : [ "obj-110", 0 ]
				}

			}
, 			{
				"patchline" : 				{
					"destination" : [ "obj-18", 0 ],
					"midpoints" : [ 508.0, 168.0, 491.5, 168.0 ],
					"order" : 0,
					"source" : [ "obj-12", 0 ]
				}

			}
, 			{
				"patchline" : 				{
					"destination" : [ "obj-6", 0 ],
					"midpoints" : [ 508.0, 168.0, 456.0, 168.0, 456.0, 147.0, 117.0, 147.0, 117.0, 180.0, 81.0, 180.0, 81.0, 186.0, 78.5, 186.0 ],
					"order" : 1,
					"source" : [ "obj-12", 0 ]
				}

			}
, 			{
				"patchline" : 				{
					"destination" : [ "obj-10", 0 ],
					"midpoints" : [ 35.5, 321.0, 174.0, 321.0, 174.0, 231.0, 192.0, 231.0, 192.0, 222.0, 561.0, 222.0, 561.0, 207.0, 585.5, 207.0 ],
					"order" : 1,
					"source" : [ "obj-13", 0 ]
				}

			}
, 			{
				"patchline" : 				{
					"destination" : [ "obj-110", 0 ],
					"midpoints" : [ 35.5, 363.0, 229.5, 363.0 ],
					"order" : 2,
					"source" : [ "obj-13", 0 ]
				}

			}
, 			{
				"patchline" : 				{
					"destination" : [ "obj-23", 0 ],
					"midpoints" : [ 35.5, 363.0, 483.0, 363.0, 483.0, 393.0, 771.0, 393.0, 771.0, 219.0, 784.5, 219.0 ],
					"order" : 0,
					"source" : [ "obj-13", 0 ]
				}

			}
, 			{
				"patchline" : 				{
					"destination" : [ "obj-19", 0 ],
					"midpoints" : [ 578.0, 168.0, 578.0, 168.0 ],
					"order" : 0,
					"source" : [ "obj-14", 0 ]
				}

			}
, 			{
				"patchline" : 				{
					"destination" : [ "obj-6", 0 ],
					"midpoints" : [ 578.0, 168.0, 456.0, 168.0, 456.0, 147.0, 117.0, 147.0, 117.0, 180.0, 81.0, 180.0, 81.0, 186.0, 78.5, 186.0 ],
					"order" : 1,
					"source" : [ "obj-14", 0 ]
				}

			}
, 			{
				"patchline" : 				{
					"destination" : [ "obj-20", 0 ],
					"midpoints" : [ 655.5, 168.0, 655.5, 168.0 ],
					"order" : 0,
					"source" : [ "obj-16", 0 ]
				}

			}
, 			{
				"patchline" : 				{
					"destination" : [ "obj-6", 0 ],
					"midpoints" : [ 655.5, 168.0, 630.0, 168.0, 630.0, 129.0, 285.0, 129.0, 285.0, 147.0, 117.0, 147.0, 117.0, 180.0, 81.0, 180.0, 81.0, 186.0, 78.5, 186.0 ],
					"order" : 1,
					"source" : [ "obj-16", 0 ]
				}

			}
, 			{
				"patchline" : 				{
					"destination" : [ "obj-110", 1 ],
					"midpoints" : [ 604.0, 393.0, 318.0, 393.0, 318.0, 372.0, 297.5, 372.0 ],
					"order" : 1,
					"source" : [ "obj-17", 0 ]
				}

			}
, 			{
				"patchline" : 				{
					"destination" : [ "obj-29", 0 ],
					"midpoints" : [ 604.0, 378.0, 604.0, 378.0 ],
					"order" : 0,
					"source" : [ "obj-17", 0 ]
				}

			}
, 			{
				"patchline" : 				{
					"destination" : [ "obj-10", 0 ],
					"midpoints" : [ 491.5, 207.0, 585.5, 207.0 ],
					"source" : [ "obj-18", 0 ]
				}

			}
, 			{
				"patchline" : 				{
					"destination" : [ "obj-10", 0 ],
					"midpoints" : [ 578.0, 207.0, 585.5, 207.0 ],
					"source" : [ "obj-19", 0 ]
				}

			}
, 			{
				"patchline" : 				{
					"destination" : [ "obj-10", 0 ],
					"midpoints" : [ 655.5, 207.0, 585.5, 207.0 ],
					"source" : [ "obj-20", 0 ]
				}

			}
, 			{
				"patchline" : 				{
					"destination" : [ "obj-6", 0 ],
					"midpoints" : [ 801.0, 168.0, 738.0, 168.0, 738.0, 129.0, 285.0, 129.0, 285.0, 147.0, 117.0, 147.0, 117.0, 180.0, 81.0, 180.0, 81.0, 186.0, 78.5, 186.0 ],
					"order" : 1,
					"source" : [ "obj-21", 0 ]
				}

			}
, 			{
				"patchline" : 				{
					"destination" : [ "obj-7", 0 ],
					"midpoints" : [ 801.0, 168.0, 784.5, 168.0 ],
					"order" : 0,
					"source" : [ "obj-21", 0 ]
				}

			}
, 			{
				"patchline" : 				{
					"destination" : [ "obj-17", 1 ],
					"midpoints" : [ 784.5, 351.0, 709.0, 351.0 ],
					"order" : 1,
					"source" : [ "obj-23", 0 ]
				}

			}
, 			{
				"patchline" : 				{
					"destination" : [ "obj-24", 0 ],
					"midpoints" : [ 784.5, 246.0, 810.75, 246.0 ],
					"order" : 0,
					"source" : [ "obj-23", 0 ]
				}

			}
, 			{
				"patchline" : 				{
					"destination" : [ "obj-11", 0 ],
					"midpoints" : [ 693.5, 237.0, 585.5, 237.0 ],
					"order" : 1,
					"source" : [ "obj-27", 0 ]
				}

			}
, 			{
				"patchline" : 				{
					"destination" : [ "obj-24", 0 ],
					"midpoints" : [ 693.5, 246.0, 810.75, 246.0 ],
					"order" : 0,
					"source" : [ "obj-27", 0 ]
				}

			}
, 			{
				"patchline" : 				{
					"destination" : [ "obj-13", 0 ],
					"midpoints" : [ 19.5, 237.0, 35.5, 237.0 ],
					"source" : [ "obj-3", 0 ]
				}

			}
, 			{
				"patchline" : 				{
					"destination" : [ "obj-111", 0 ],
					"midpoints" : [ 508.0, 393.0, 309.0, 393.0, 309.0, 399.0, 227.0, 399.0 ],
					"order" : 1,
					"source" : [ "obj-30", 0 ]
				}

			}
, 			{
				"patchline" : 				{
					"destination" : [ "obj-29", 0 ],
					"midpoints" : [ 508.0, 393.0, 604.0, 393.0 ],
					"order" : 0,
					"source" : [ "obj-30", 0 ]
				}

			}
, 			{
				"patchline" : 				{
					"destination" : [ "obj-6", 0 ],
					"midpoints" : [ 125.5, 168.0, 108.0, 168.0, 108.0, 180.0, 81.0, 180.0, 81.0, 186.0, 78.5, 186.0 ],
					"source" : [ "obj-39", 0 ]
				}

			}
, 			{
				"patchline" : 				{
					"destination" : [ "obj-23", 0 ],
					"midpoints" : [ 948.5, 207.0, 784.5, 207.0 ],
					"source" : [ "obj-4", 0 ]
				}

			}
, 			{
				"patchline" : 				{
					"destination" : [ "obj-3", 0 ],
					"midpoints" : [ 35.5, 141.0, 19.5, 141.0 ],
					"order" : 6,
					"source" : [ "obj-41", 0 ]
				}

			}
, 			{
				"patchline" : 				{
					"destination" : [ "obj-39", 0 ],
					"midpoints" : [ 35.5, 129.0, 102.0, 129.0, 102.0, 108.0, 125.5, 108.0 ],
					"order" : 5,
					"source" : [ "obj-41", 0 ]
				}

			}
, 			{
				"patchline" : 				{
					"destination" : [ "obj-44", 0 ],
					"midpoints" : [ 35.5, 129.0, 12.0, 129.0, 12.0, 3.0, 604.0, 3.0 ],
					"order" : 3,
					"source" : [ "obj-41", 0 ]
				}

			}
, 			{
				"patchline" : 				{
					"destination" : [ "obj-48", 0 ],
					"midpoints" : [ 35.5, 129.0, 12.0, 129.0, 12.0, 3.0, 684.5, 3.0 ],
					"order" : 2,
					"source" : [ "obj-41", 0 ]
				}

			}
, 			{
				"patchline" : 				{
					"destination" : [ "obj-53", 0 ],
					"midpoints" : [ 35.5, 129.0, 12.0, 129.0, 12.0, 3.0, 579.0, 3.0, 579.0, 42.0, 720.0, 42.0, 720.0, 6.0, 734.5, 6.0 ],
					"order" : 1,
					"source" : [ "obj-41", 0 ]
				}

			}
, 			{
				"patchline" : 				{
					"destination" : [ "obj-55", 0 ],
					"midpoints" : [ 35.5, 129.0, 12.0, 129.0, 12.0, 3.0, 579.0, 3.0, 579.0, 42.0, 759.0, 42.0, 759.0, 6.0, 773.5, 6.0 ],
					"order" : 0,
					"source" : [ "obj-41", 0 ]
				}

			}
, 			{
				"patchline" : 				{
					"destination" : [ "obj-91", 0 ],
					"midpoints" : [ 35.5, 129.0, 102.0, 129.0, 102.0, 108.0, 212.5, 108.0 ],
					"order" : 4,
					"source" : [ "obj-41", 0 ]
				}

			}
, 			{
				"patchline" : 				{
					"destination" : [ "obj-56", 0 ],
					"midpoints" : [ 604.0, 78.0, 508.0, 78.0 ],
					"order" : 5,
					"source" : [ "obj-44", 0 ]
				}

			}
, 			{
				"patchline" : 				{
					"destination" : [ "obj-57", 0 ],
					"midpoints" : [ 604.0, 78.0, 578.0, 78.0 ],
					"order" : 4,
					"source" : [ "obj-44", 0 ]
				}

			}
, 			{
				"patchline" : 				{
					"destination" : [ "obj-58", 0 ],
					"midpoints" : [ 604.0, 78.0, 655.5, 78.0 ],
					"order" : 3,
					"source" : [ "obj-44", 0 ]
				}

			}
, 			{
				"patchline" : 				{
					"destination" : [ "obj-59", 0 ],
					"midpoints" : [ 604.0, 42.0, 786.0, 42.0, 786.0, 36.0, 801.0, 36.0 ],
					"order" : 2,
					"source" : [ "obj-44", 0 ]
				}

			}
, 			{
				"patchline" : 				{
					"destination" : [ "obj-60", 0 ],
					"midpoints" : [ 604.0, 75.0, 846.0, 75.0, 846.0, 36.0, 871.0, 36.0 ],
					"order" : 1,
					"source" : [ "obj-44", 0 ]
				}

			}
, 			{
				"patchline" : 				{
					"destination" : [ "obj-61", 0 ],
					"midpoints" : [ 604.0, 75.0, 924.0, 75.0, 924.0, 36.0, 948.5, 36.0 ],
					"order" : 0,
					"source" : [ "obj-44", 0 ]
				}

			}
, 			{
				"patchline" : 				{
					"destination" : [ "obj-56", 0 ],
					"midpoints" : [ 684.5, 78.0, 508.0, 78.0 ],
					"order" : 5,
					"source" : [ "obj-48", 0 ]
				}

			}
, 			{
				"patchline" : 				{
					"destination" : [ "obj-57", 0 ],
					"midpoints" : [ 684.5, 78.0, 578.0, 78.0 ],
					"order" : 4,
					"source" : [ "obj-48", 0 ]
				}

			}
, 			{
				"patchline" : 				{
					"destination" : [ "obj-58", 0 ],
					"midpoints" : [ 684.5, 78.0, 655.5, 78.0 ],
					"order" : 3,
					"source" : [ "obj-48", 0 ]
				}

			}
, 			{
				"patchline" : 				{
					"destination" : [ "obj-59", 0 ],
					"midpoints" : [ 684.5, 42.0, 786.0, 42.0, 786.0, 36.0, 801.0, 36.0 ],
					"order" : 2,
					"source" : [ "obj-48", 0 ]
				}

			}
, 			{
				"patchline" : 				{
					"destination" : [ "obj-60", 0 ],
					"midpoints" : [ 684.5, 75.0, 846.0, 75.0, 846.0, 36.0, 871.0, 36.0 ],
					"order" : 1,
					"source" : [ "obj-48", 0 ]
				}

			}
, 			{
				"patchline" : 				{
					"destination" : [ "obj-61", 0 ],
					"midpoints" : [ 684.5, 75.0, 924.0, 75.0, 924.0, 36.0, 948.5, 36.0 ],
					"order" : 0,
					"source" : [ "obj-48", 0 ]
				}

			}
, 			{
				"patchline" : 				{
					"destination" : [ "obj-23", 0 ],
					"midpoints" : [ 871.0, 207.0, 784.5, 207.0 ],
					"source" : [ "obj-5", 0 ]
				}

			}
, 			{
				"patchline" : 				{
					"destination" : [ "obj-56", 1 ],
					"midpoints" : [ 734.5, 78.0, 519.0, 78.0 ],
					"order" : 5,
					"source" : [ "obj-53", 0 ]
				}

			}
, 			{
				"patchline" : 				{
					"destination" : [ "obj-57", 1 ],
					"midpoints" : [ 734.5, 78.0, 589.0, 78.0 ],
					"order" : 4,
					"source" : [ "obj-53", 0 ]
				}

			}
, 			{
				"patchline" : 				{
					"destination" : [ "obj-58", 1 ],
					"midpoints" : [ 734.5, 78.0, 666.5, 78.0 ],
					"order" : 3,
					"source" : [ "obj-53", 0 ]
				}

			}
, 			{
				"patchline" : 				{
					"destination" : [ "obj-59", 1 ],
					"midpoints" : [ 734.5, 42.0, 786.0, 42.0, 786.0, 39.0, 812.0, 39.0 ],
					"order" : 2,
					"source" : [ "obj-53", 0 ]
				}

			}
, 			{
				"patchline" : 				{
					"destination" : [ "obj-60", 1 ],
					"midpoints" : [ 734.5, 75.0, 846.0, 75.0, 846.0, 27.0, 882.0, 27.0 ],
					"order" : 1,
					"source" : [ "obj-53", 0 ]
				}

			}
, 			{
				"patchline" : 				{
					"destination" : [ "obj-61", 1 ],
					"midpoints" : [ 734.5, 75.0, 924.0, 75.0, 924.0, 27.0, 959.5, 27.0 ],
					"order" : 0,
					"source" : [ "obj-53", 0 ]
				}

			}
, 			{
				"patchline" : 				{
					"destination" : [ "obj-56", 2 ],
					"midpoints" : [ 773.5, 78.0, 530.0, 78.0 ],
					"order" : 5,
					"source" : [ "obj-55", 0 ]
				}

			}
, 			{
				"patchline" : 				{
					"destination" : [ "obj-57", 2 ],
					"midpoints" : [ 773.5, 78.0, 600.0, 78.0 ],
					"order" : 4,
					"source" : [ "obj-55", 0 ]
				}

			}
, 			{
				"patchline" : 				{
					"destination" : [ "obj-58", 2 ],
					"midpoints" : [ 773.5, 78.0, 677.5, 78.0 ],
					"order" : 3,
					"source" : [ "obj-55", 0 ]
				}

			}
, 			{
				"patchline" : 				{
					"destination" : [ "obj-59", 2 ],
					"midpoints" : [ 773.5, 33.0, 823.0, 33.0 ],
					"order" : 2,
					"source" : [ "obj-55", 0 ]
				}

			}
, 			{
				"patchline" : 				{
					"destination" : [ "obj-60", 2 ],
					"midpoints" : [ 773.5, 33.0, 846.0, 33.0, 846.0, 27.0, 893.0, 27.0 ],
					"order" : 1,
					"source" : [ "obj-55", 0 ]
				}

			}
, 			{
				"patchline" : 				{
					"destination" : [ "obj-61", 2 ],
					"midpoints" : [ 773.5, 33.0, 846.0, 33.0, 846.0, 27.0, 970.5, 27.0 ],
					"order" : 0,
					"source" : [ "obj-55", 0 ]
				}

			}
, 			{
				"patchline" : 				{
					"destination" : [ "obj-12", 0 ],
					"midpoints" : [ 508.0, 114.0, 508.0, 114.0 ],
					"source" : [ "obj-56", 0 ]
				}

			}
, 			{
				"patchline" : 				{
					"destination" : [ "obj-14", 0 ],
					"midpoints" : [ 578.0, 114.0, 578.0, 114.0 ],
					"source" : [ "obj-57", 0 ]
				}

			}
, 			{
				"patchline" : 				{
					"destination" : [ "obj-16", 0 ],
					"midpoints" : [ 655.5, 114.0, 655.5, 114.0 ],
					"source" : [ "obj-58", 0 ]
				}

			}
, 			{
				"patchline" : 				{
					"destination" : [ "obj-71", 0 ],
					"midpoints" : [ 801.0, 66.0, 801.0, 66.0 ],
					"source" : [ "obj-59", 0 ]
				}

			}
, 			{
				"patchline" : 				{
					"destination" : [ "obj-13", 0 ],
					"midpoints" : [ 78.5, 237.0, 35.5, 237.0 ],
					"source" : [ "obj-6", 0 ]
				}

			}
, 			{
				"patchline" : 				{
					"destination" : [ "obj-72", 0 ],
					"midpoints" : [ 871.0, 66.0, 871.0, 66.0 ],
					"source" : [ "obj-60", 0 ]
				}

			}
, 			{
				"patchline" : 				{
					"destination" : [ "obj-73", 0 ],
					"midpoints" : [ 948.5, 66.0, 948.5, 66.0 ],
					"source" : [ "obj-61", 0 ]
				}

			}
, 			{
				"patchline" : 				{
					"destination" : [ "obj-23", 0 ],
					"midpoints" : [ 784.5, 198.0, 784.5, 198.0 ],
					"source" : [ "obj-7", 0 ]
				}

			}
, 			{
				"patchline" : 				{
					"destination" : [ "obj-21", 0 ],
					"midpoints" : [ 801.0, 114.0, 801.0, 114.0 ],
					"source" : [ "obj-71", 0 ]
				}

			}
, 			{
				"patchline" : 				{
					"destination" : [ "obj-9", 0 ],
					"midpoints" : [ 871.0, 114.0, 871.0, 114.0 ],
					"source" : [ "obj-72", 0 ]
				}

			}
, 			{
				"patchline" : 				{
					"destination" : [ "obj-8", 0 ],
					"midpoints" : [ 948.5, 114.0, 948.5, 114.0 ],
					"source" : [ "obj-73", 0 ]
				}

			}
, 			{
				"patchline" : 				{
					"destination" : [ "obj-82", 0 ],
					"midpoints" : [ 198.0, 186.0, 198.0, 186.0 ],
					"source" : [ "obj-76", 0 ]
				}

			}
, 			{
				"patchline" : 				{
					"destination" : [ "obj-4", 0 ],
					"midpoints" : [ 948.5, 168.0, 948.5, 168.0 ],
					"order" : 0,
					"source" : [ "obj-8", 0 ]
				}

			}
, 			{
				"patchline" : 				{
					"destination" : [ "obj-6", 0 ],
					"midpoints" : [ 948.5, 168.0, 921.0, 168.0, 921.0, 129.0, 285.0, 129.0, 285.0, 147.0, 117.0, 147.0, 117.0, 180.0, 81.0, 180.0, 81.0, 186.0, 78.5, 186.0 ],
					"order" : 1,
					"source" : [ "obj-8", 0 ]
				}

			}
, 			{
				"patchline" : 				{
					"destination" : [ "obj-103", 0 ],
					"midpoints" : [ 198.0, 267.0, 198.0, 267.0 ],
					"source" : [ "obj-81", 0 ]
				}

			}
, 			{
				"patchline" : 				{
					"destination" : [ "obj-81", 0 ],
					"midpoints" : [ 218.5, 228.0, 198.0, 228.0 ],
					"source" : [ "obj-82", 1 ]
				}

			}
, 			{
				"patchline" : 				{
					"destination" : [ "obj-81", 1 ],
					"midpoints" : [ 294.5, 228.0, 213.666672, 228.0 ],
					"source" : [ "obj-83", 1 ]
				}

			}
, 			{
				"patchline" : 				{
					"destination" : [ "obj-81", 2 ],
					"midpoints" : [ 369.0, 228.0, 229.333328, 228.0 ],
					"source" : [ "obj-84", 1 ]
				}

			}
, 			{
				"patchline" : 				{
					"destination" : [ "obj-81", 3 ],
					"midpoints" : [ 445.0, 228.0, 245.0, 228.0 ],
					"source" : [ "obj-85", 1 ]
				}

			}
, 			{
				"patchline" : 				{
					"destination" : [ "obj-83", 0 ],
					"midpoints" : [ 260.0, 186.0, 274.0, 186.0 ],
					"source" : [ "obj-86", 0 ]
				}

			}
, 			{
				"patchline" : 				{
					"destination" : [ "obj-84", 0 ],
					"midpoints" : [ 323.0, 186.0, 348.5, 186.0 ],
					"source" : [ "obj-87", 0 ]
				}

			}
, 			{
				"patchline" : 				{
					"destination" : [ "obj-85", 0 ],
					"midpoints" : [ 387.0, 186.0, 424.5, 186.0 ],
					"source" : [ "obj-88", 0 ]
				}

			}
, 			{
				"patchline" : 				{
					"destination" : [ "obj-5", 0 ],
					"midpoints" : [ 871.0, 168.0, 871.0, 168.0 ],
					"order" : 0,
					"source" : [ "obj-9", 0 ]
				}

			}
, 			{
				"patchline" : 				{
					"destination" : [ "obj-6", 0 ],
					"midpoints" : [ 871.0, 168.0, 843.0, 168.0, 843.0, 129.0, 285.0, 129.0, 285.0, 147.0, 117.0, 147.0, 117.0, 180.0, 81.0, 180.0, 81.0, 186.0, 78.5, 186.0 ],
					"order" : 1,
					"source" : [ "obj-9", 0 ]
				}

			}
, 			{
				"patchline" : 				{
					"destination" : [ "obj-76", 0 ],
					"midpoints" : [ 212.5, 147.0, 198.0, 147.0 ],
					"order" : 3,
					"source" : [ "obj-91", 0 ]
				}

			}
, 			{
				"patchline" : 				{
					"destination" : [ "obj-86", 0 ],
					"midpoints" : [ 212.5, 147.0, 260.0, 147.0 ],
					"order" : 2,
					"source" : [ "obj-91", 0 ]
				}

			}
, 			{
				"patchline" : 				{
					"destination" : [ "obj-87", 0 ],
					"midpoints" : [ 212.5, 147.0, 323.0, 147.0 ],
					"order" : 1,
					"source" : [ "obj-91", 0 ]
				}

			}
, 			{
				"patchline" : 				{
					"destination" : [ "obj-88", 0 ],
					"midpoints" : [ 212.5, 147.0, 387.0, 147.0 ],
					"order" : 0,
					"source" : [ "obj-91", 0 ]
				}

			}
 ],
		"dependency_cache" : [ 			{
				"name" : "candid.png",
				"bootpath" : "~/GitHub/II_Project_2",
				"patcherrelativepath" : ".",
				"type" : "PNG ",
				"implicit" : 1
			}
 ],
		"autosave" : 0
	}

}
